<?xml version="1.0" encoding="UTF-8"?>
<svg version="1.1" viewBox="0 0 581.21 603.47" xmlns="http://www.w3.org/2000/svg">
 <g transform="translate(-51.483 -122.2)">
  <path d="m611.72 721.88c-26.021-29.347 43.541-24.027 12.17 1.5794-3.2276 2.6344-8.7433 2.2847-12.17-1.5794zm-46.981-6.938c-23.718-26.579 32.14-35.655 20.921-3.8105-2.6106 7.4099-15.695 9.6669-20.921 3.8105zm-357.67-8.5655c-30.723-17.509 23.641-36.543 14.493-8.4205-1.9404 5.9655-8.8637 11.629-14.493 8.4205zm-52.794-15.032c-25.124-22.381 27.59-37.313 19.858-5.1715-1.9206 7.9839-15.499 9.0543-19.858 5.1715zm442.41-6.5458c-31.321-24.226 35.218-35.22 16.982-1.3817-2.8019 5.1991-12.408 4.9198-16.982 1.3817zm-405.29-21.693c-31.99-24.621 33.236-38.161 17.114-4.1658-2.3892 5.0377-11.277 8.6586-17.114 4.1658zm311.97 1.5221c-29.211-13.538-30.264-52.608-41.815-79.267-5.1911-27.165-27.632-49.275-43.141-67.552 28.463-1.7424 54.967 16.91 78.294 31.581 29.362 18.806 62.757 50.678 52.489 89.145-4.5754 19.354-27.617 28.952-45.827 26.094zm-84.798-7.2835c-28.46-20.746-20.045-61.052-26.863-91.483 1.8514-14.473-32.99-57.841-1.0584-41.309 36.584 22.349 64.472 63.243 60.446 107.53-2.3716 12.932-17.599 34.734-32.524 25.261zm-76.556-16.637c-29.141-19.02-15.314-56.304-11.042-83.978 9.9822-17.465-4.6556-49.307 2.4894-60.04 24.202 14.646 32.12 44.05 43.626 68.155 7.3782 25.956 13.317 67.129-19.983 77.237-4.8708 0.91826-10.955 2.6693-15.09-1.3748zm-284.82-13.631c-17.064-27.135 12.193-54.366 24.529-77.568 13.567-25.646 15.567-54.796 10.926-82.978-5.2244-30.736-2.3717-63.345 17.182-88.898 13.469-16.743 37.987-24.646 53.314-26.956-3.7171-20.609-27.828-42.788-24.546-73.429-13.941-12.136-18.188-21.99-17.571-24.766 0.67281-3.0284 20.802-4.439 38.558-20.929 11.734-10.897 31.389-8.8394 45.272-5.9127 16.12 3.3983 30.307 24.123 38.858 35.549 24.032 32.114 17.337-38.49 45.74-43.668 45.593-8.3134 94.51-0.27776 135.87-24.178 20.12-11.628 35.307-32.629 44.427-53.973 12.452-29.139 51.354-17.071 36.316 12.993-9.4201 16.676-1.2135 22.59 9.5049 29.293-7.0882 15.52-43.334 29.181-17.004 44.359 0.51701 12.82-36.6 19.254-14.568 37.769-7.8967 18.382-52.895 7.8198-35.833 34.945-10.701 12.627-55.301 4.5977-26.908 26.429 16.042 26.296-60.539 6.9365-27.065 34.792-17.026 16.118-52.876 3.1-70.916 14.799-2.185 31.748 19.298 59.464 40.755 80.218 8.9292 9.2366 38.547 24.728 31.349 36.027-26.784 0.63393-53.986-5.963-78.858-15.548-21.739-13.493-45.896-25.104-47.921 10.359-21.888-12.549-17.223 35.493-34.559 46.472-8.3591 23.619-23.389-36.002-26.817-0.73263-0.52549 17.775-7.5816 33.881-24.064 25.059-5.752 20.843-13.26 58.336-35.749 29.355-9.1581 10.918-19.934 50.522-33.384 21.725-13.708-20.283-34.936 39.858-56.837 19.392zm219.82-33.105c-26.582-24.458 2.8135-59.886 13.333-85.267 5.2894-10.112 6.5494-44.328 15.608-18.103 12.561 27.089 19.56 62.511 3.8217 89.594-6.1981 10.163-20.74 25.09-32.763 13.775zm222.33-62.477c-23.084-12.61-53.925-24.604-66.038-47.769 25.139 2.3792 52.334 4.86 75.296-8.838 25.406-15.578 65.543 15.004 44.445 41.136-12.897 15.02-35.153 19.045-53.703 15.471zm-48.772-59.239c-16.711-4.6208-57.618-17.112-56.576-29.757 29.036-5.5634 60.585-8.6559 83.731-29.137 27.793-32.712 70.675 12.878 35.975 37.755-16.753 14.981-40.712 23.236-63.13 21.138zm-51.613-52.45c-13.124-2.1096-60.014-13.944-45.059-27.57 28.495-4.8723 61.941-8.3485 77.415-36.639 18.084-36.418 71.083 5.6025 40.776 30.788-18.658 20.748-44.236 37.773-73.133 33.421zm104.5-98.326c-23.232-31.071 42.771-35.903 21.032-1.9706-4.0828 6.3728-15.843 8.9107-21.032 1.9706zm52.788-4.5339c-25.181-15.431 7.2547-46.304 17.108-16.199 3.7857 11.567-5.4198 23.362-17.108 16.199zm-20.772-49.87c-26.241-26.598 35.36-34.405 18.159-2.8792-3.3201 6.085-13.391 7.7117-18.159 2.8792z" fill="#008080" stroke="#000"/>
 </g>
</svg>
